<!--?xml version="1.0" standalone="no"?-->              <svg id="sw-js-blob-svg" viewBox="0 0 100 100" xmlns="http://www.w3.org/2000/svg">                    <defs>                         <linearGradient id="sw-gradient" x1="0" x2="1" y1="1" y2="0">                            <stop id="stop1" stop-color="rgba(248, 117, 55, 1)" offset="0%"></stop>                            <stop id="stop2" stop-color="rgba(251, 168, 31, 1)" offset="100%"></stop>                        </linearGradient>                    </defs>                <path fill="url(#sw-gradient)" d="M23.2,-39.5C30.2,-36.1,36.1,-30.2,40.1,-23.2C44,-16.2,46,-8.1,44.8,-0.7C43.6,6.7,39.3,13.4,35.2,20.3C31.2,27.1,27.4,34,21.6,37.1C15.8,40.2,7.9,39.5,0.8,38.2C-6.4,36.9,-12.7,35,-19.6,32.5C-26.4,30,-33.8,26.8,-38.1,21.3C-42.4,15.8,-43.6,7.9,-43.5,0.1C-43.3,-7.7,-41.7,-15.5,-37.8,-21.6C-33.9,-27.8,-27.6,-32.4,-20.9,-35.9C-14.2,-39.5,-7.1,-41.9,0.5,-42.8C8.1,-43.6,16.2,-42.8,23.2,-39.5Z" width="100%" height="100%" transform="translate(50 50)" stroke-width="0" style="transition: all 0.3s ease 0s;" stroke="url(#sw-gradient)"></path>              </svg>